<mxfile host="65bd71144e">
    <diagram id="eekXB7d_YKu63jmdjsy3" name="Page-1">
        <mxGraphModel dx="882" dy="787" grid="1" gridSize="10" guides="1" tooltips="1" connect="1" arrows="1" fold="1" page="1" pageScale="1" pageWidth="850" pageHeight="1100" math="0" shadow="0" adaptiveColors="simple">
            <root>
                <mxCell id="0"/>
                <mxCell id="1" parent="0"/>
                <mxCell id="11" value="&lt;span style=&quot;color: rgb(0, 0, 0);&quot;&gt;Read&lt;/span&gt;" style="shape=cylinder3;whiteSpace=wrap;html=1;boundedLbl=1;backgroundOutline=1;size=15;" vertex="1" parent="1">
                    <mxGeometry x="340" y="680" width="50" height="50" as="geometry"/>
                </mxCell>
                <mxCell id="12" value="Write" style="shape=cylinder3;whiteSpace=wrap;html=1;boundedLbl=1;backgroundOutline=1;size=15;" vertex="1" parent="1">
                    <mxGeometry x="410" y="680" width="50" height="50" as="geometry"/>
                </mxCell>
                <mxCell id="17" value="Backend&lt;br&gt;NestJs" style="rounded=0;whiteSpace=wrap;html=1;" vertex="1" parent="1">
                    <mxGeometry x="340" y="560" width="120" height="60" as="geometry"/>
                </mxCell>
                <mxCell id="18" style="edgeStyle=none;html=1;exitX=0.5;exitY=1;exitDx=0;exitDy=0;entryX=0.589;entryY=-0.021;entryDx=0;entryDy=0;entryPerimeter=0;" edge="1" parent="1" source="17" target="11">
                    <mxGeometry relative="1" as="geometry"/>
                </mxCell>
                <mxCell id="19" style="edgeStyle=none;html=1;exitX=0.5;exitY=1;exitDx=0;exitDy=0;entryX=0.5;entryY=0;entryDx=0;entryDy=0;entryPerimeter=0;" edge="1" parent="1" source="17" target="12">
                    <mxGeometry relative="1" as="geometry"/>
                </mxCell>
                <mxCell id="20" value="DB: Postgresl&lt;div&gt;Host: NeonTech&lt;/div&gt;" style="text;html=1;align=center;verticalAlign=middle;whiteSpace=wrap;rounded=0;" vertex="1" parent="1">
                    <mxGeometry x="350" y="740" width="100" height="40" as="geometry"/>
                </mxCell>
                <mxCell id="21" value="" style="endArrow=none;dashed=1;html=1;dashPattern=1 3;strokeWidth=2;" edge="1" parent="1">
                    <mxGeometry width="50" height="50" relative="1" as="geometry">
                        <mxPoint x="350" y="640" as="sourcePoint"/>
                        <mxPoint x="440" y="640" as="targetPoint"/>
                        <Array as="points">
                            <mxPoint x="400" y="650"/>
                        </Array>
                    </mxGeometry>
                </mxCell>
                <mxCell id="28" value="CQSR" style="edgeLabel;html=1;align=center;verticalAlign=middle;resizable=0;points=[];" vertex="1" connectable="0" parent="21">
                    <mxGeometry x="-0.1821" y="1" relative="1" as="geometry">
                        <mxPoint x="63" y="-6" as="offset"/>
                    </mxGeometry>
                </mxCell>
            </root>
        </mxGraphModel>
    </diagram>
</mxfile>